<?xml version="1.0" encoding="UTF-8"?><svg id="Layer_2" xmlns="http://www.w3.org/2000/svg" viewBox="0 0 177.48 94.68"><defs><style>.cls-1{fill:#231f20;}</style></defs><g id="Layer_1-2"><g id="Grupo_MR_Logo"><path class="cls-1" d="M89.76,94.68h-9.08V30.39l-37.28,55.56L9.14,31.29v63.4H0V0L43.69,69.57,89.76,.1V94.68Z"/><path class="cls-1" d="M177.48,94.68h-14.88l-48.99-38.04v-6.6h29.94c5.64,0,10.43-1.97,14.35-5.91,3.92-3.94,5.88-8.82,5.88-14.63s-1.96-10.69-5.88-14.63c-3.92-3.94-8.71-5.91-14.35-5.91h-33.37V94.68h-9.52V0h42.89c5.39,0,10.35,1.35,14.88,4.05,4.52,2.7,8.13,6.28,10.83,10.74,2.7,4.46,4.05,9.37,4.05,14.72s-1.35,10.21-4.05,14.69c-2.7,4.48-6.31,8.07-10.83,10.77-4.52,2.7-9.48,4.05-14.88,4.05h-12.01l45.94,35.67Z"/></g></g></svg>