<?xml version="1.0" encoding="UTF-8"?><svg id="Layer_2" xmlns="http://www.w3.org/2000/svg" viewBox="0 0 106.76 60.04"><defs><style>.cls-1{fill:blue;}</style></defs><g id="Layer_1-2"><g><g><path class="cls-1" d="M50.91,39.97l9.19,14.43c2.19,3.51,6.04,5.65,10.18,5.65h11.17l-11.13-17.4c-1.06-1.66-2.9-2.67-4.87-2.67h-14.54Z"/><path class="cls-1" d="M61.09,27.73L47.14,5.6c-2.2-3.49-6.03-5.6-10.15-5.6h-10.84l23.95,38.37c3.12-3.62,6.8-7.59,10.99-10.63Z"/></g><path class="cls-1" d="M55.31,60.04h-11.17c-4.14,0-7.99-2.13-10.18-5.65L0,0H10.84C14.96,0,18.79,2.11,20.99,5.6L55.31,60.04Z"/><path class="cls-1" d="M91.3,36.23c2.93-.89,5.55-2.5,7.67-4.61,3.35-3.35,5.42-7.97,5.42-13.09C104.39,8.31,96.1,.02,85.88,.02h-29.73c0,8.47,6.31,15.65,14.72,16.67,1.41,.17,2.73,.29,3.92,.36h0l-4.96-9.92,5.47-.2,6.41,8.38,3.04-.72c2.19-.52,5.81-.55,8.04-.07l.81,.18c.65,.14,.86,.96,.36,1.4l-.86,.75c-1.65,1.44-3.71,2.28-5.79,2.82l-4.34,1.06-2.1,10.37-5.01,2.39,.18-11.49h0c-5.78,3.39-15.8,8.75-20.72,14.99l12.46,.07c4.66,0,9.01,2.36,11.55,6.27l6.43,9.91c2.76,4.25,7.48,6.81,12.54,6.81h8.46l-15.46-23.8Z"/></g></g></svg>